<?xml version="1.0" encoding="utf-8"?>
<!-- Generator: Adobe Illustrator 23.0.2, SVG Export Plug-In . SVG Version: 6.00 Build 0)  -->
<!DOCTYPE svg PUBLIC "-//W3C//DTD SVG 1.1//EN" "http://www.w3.org/Graphics/SVG/1.1/DTD/svg11.dtd" [
	<!ENTITY ns_extend "http://ns.adobe.com/Extensibility/1.0/">
	<!ENTITY ns_ai "http://ns.adobe.com/AdobeIllustrator/10.0/">
	<!ENTITY ns_graphs "http://ns.adobe.com/Graphs/1.0/">
	<!ENTITY ns_vars "http://ns.adobe.com/Variables/1.0/">
	<!ENTITY ns_imrep "http://ns.adobe.com/ImageReplacement/1.0/">
	<!ENTITY ns_sfw "http://ns.adobe.com/SaveForWeb/1.0/">
	<!ENTITY ns_custom "http://ns.adobe.com/GenericCustomNamespace/1.0/">
	<!ENTITY ns_adobe_xpath "http://ns.adobe.com/XPath/1.0/">
]>
<svg version="1.1" id="Layer_1" xmlns:x="&ns_extend;" xmlns:i="&ns_ai;" xmlns:graph="&ns_graphs;"
	 xmlns="http://www.w3.org/2000/svg" xmlns:xlink="http://www.w3.org/1999/xlink" x="0px" y="0px" viewBox="0 0 31.9 32"
	 style="enable-background:new 0 0 31.9 32;" xml:space="preserve">
<style type="text/css">
	.st0{fill:#231F20;}
</style>
<metadata>
	<sfw  xmlns="&ns_sfw;">
		<slices></slices>
		<sliceSourceBounds  bottomLeftOrigin="true" height="19.5" width="29.1" x="1.4" y="6.2"></sliceSourceBounds>
	</sfw>
</metadata>
<g>
	<path class="st0" d="M1.4,6.4h11.8V10H5.8v4.4h7V18h-7v7.8H1.4V6.4z"/>
	<path class="st0" d="M16.5,6.6c1.4-0.2,3.3-0.4,5.9-0.4c2.7,0,4.6,0.5,5.9,1.6c1.3,1,2.1,2.6,2.1,4.5s-0.6,3.5-1.8,4.6
		c-1.5,1.4-3.7,2-6.3,2c-0.6,0-1.1,0-1.5-0.1v7h-4.3V6.6z M20.9,15.4c0.4,0.1,0.8,0.1,1.5,0.1c2.3,0,3.8-1.2,3.8-3.1
		c0-1.8-1.2-2.8-3.5-2.8c-0.9,0-1.5,0.1-1.8,0.1V15.4z"/>
</g>
</svg>
